<svg width="424" height="533" viewBox="0 0 424 533" fill="none" xmlns="http://www.w3.org/2000/svg">
<path d="M95.5249 514.522L103.913 518.096L121.692 487.445L109.312 482.17L95.5249 514.522Z" fill="#A0616A"/>
<path d="M164.839 522.46L173.956 522.459L178.294 487.291L164.837 487.292L164.839 522.46Z" fill="#A0616A"/>
<path d="M164.518 531.971L192.555 531.97V531.615C192.555 528.721 191.405 525.945 189.359 523.899C187.312 521.852 184.536 520.702 181.642 520.702H181.642L176.52 516.817L166.965 520.703L164.517 520.703L164.518 531.971Z" fill="#2F2E41"/>
<path d="M90.4253 520.611L116.218 531.602L116.357 531.276C117.492 528.614 117.522 525.61 116.442 522.925C115.362 520.24 113.259 518.094 110.597 516.959L110.596 516.958L107.408 511.376L97.0941 511.205L94.8426 510.245L90.4253 520.611Z" fill="#2F2E41"/>
<path d="M173.783 314.325L187.639 398.699L183.868 411.272L188.817 420.177L181.55 498.381L184.5 504.875L176.258 509.958H159.487L158.597 439.16L154.455 428.765V423.036L146.022 379.865L145.122 433.478L142.43 438.671L118.31 501.809H99.5051L100.96 490.605C97.5903 488.899 106.018 483.913 106.828 480.225L104.059 473.995L106.828 462.226L113.206 429.497L106.689 390.691L109.023 365.713L107.808 357.169L107.9 354.405C107.9 354.405 111.115 353.165 108.045 350.07C103.795 325.979 109.023 320.75 109.023 320.75L129.948 308.504L173.783 314.325Z" fill="#181818"/>
<path d="M140.038 203.208C150.533 203.208 159.042 194.7 159.042 184.204C159.042 173.709 150.533 165.2 140.038 165.2C129.542 165.2 121.034 173.709 121.034 184.204C121.034 194.7 129.542 203.208 140.038 203.208Z" fill="#A0616A"/>
<path d="M116.211 147.749C116.301 148.839 116.151 149.935 115.771 150.96C115.391 151.985 114.791 152.915 114.013 153.683C113.235 154.451 112.299 155.039 111.269 155.406C110.239 155.773 109.141 155.91 108.053 155.807L97.0105 179.98L89.6826 168.275L101.292 147.114C101.586 145.297 102.537 143.651 103.964 142.488C105.391 141.325 107.195 140.726 109.034 140.805C110.873 140.883 112.619 141.633 113.942 142.913C115.265 144.193 116.072 145.914 116.211 147.749V147.749Z" fill="#A0616A"/>
<path d="M135.176 202.278C135.095 202.099 135.014 201.92 134.933 201.74C134.964 201.741 134.995 201.745 135.026 201.746L135.176 202.278Z" fill="#2F2E41"/>
<path d="M202.841 309.89C202.934 308.8 202.786 307.704 202.409 306.678C202.032 305.652 201.434 304.721 200.658 303.95C199.882 303.18 198.947 302.589 197.918 302.22C196.889 301.85 195.792 301.711 194.703 301.811L183.723 277.609L176.365 289.296L187.92 310.487C188.21 312.304 189.156 313.953 190.58 315.119C192.004 316.286 193.806 316.889 195.646 316.816C197.485 316.742 199.233 315.996 200.559 314.72C201.885 313.443 202.697 311.725 202.841 309.89V309.89Z" fill="#A0616A"/>
<path d="M156.583 167.104C156.299 165.526 155.663 164.031 154.723 162.731C154.249 162.169 153.662 161.712 153 161.391C152.338 161.071 151.616 160.893 150.88 160.871C150.145 160.849 149.413 160.982 148.733 161.262C148.052 161.541 147.439 161.962 146.932 162.495C147.229 161.631 147.315 160.709 147.184 159.805C145.796 160.47 144.311 160.912 142.785 161.113L146.157 157.592L129.37 159.134C127.638 159.293 125.764 159.519 124.492 160.835C123.22 162.151 123.149 164.96 124.757 165.694C121.589 164.501 117.95 166.233 115.86 169.135C113.769 172.037 112.999 175.865 112.858 179.578C112.675 184.393 113.572 189.52 116.512 193.065C118.434 195.383 121.054 196.829 123.181 198.914L123.245 198.977C125.575 201.367 128.495 203.097 131.71 203.992C134.924 204.888 138.319 204.917 141.548 204.076C141.911 203.976 142.271 203.865 142.633 203.762C144.442 204.58 146.695 203.462 147.837 201.643C149.054 199.703 149.295 197.221 149.346 194.856C149.414 191.764 149.223 188.672 148.777 185.611C148.273 182.165 147.82 177.751 150.549 176.02C152.674 174.673 155.314 176.003 157.454 177.322C157.659 173.892 157.366 170.45 156.583 167.104Z" fill="#2F2E41"/>
<path fill-rule="evenodd" clip-rule="evenodd" d="M104.331 254.234L103.397 254.167L81.4198 227.26L65.1062 203.877L68.8633 194.371L86.6221 168.929L86.4382 166.732L88.4034 166.377L88.4382 163.732L90.0693 163.991L94.4382 157.732L104.438 165.732L98.7827 182.345L98.4382 185.732L96.4817 189.104L97.4382 193.732L93.6985 197.28L91.8979 202.57C98.8462 207.139 105.473 213.737 111.935 221.924L116.438 219.772C116.603 219.695 116.754 219.594 116.888 219.472L127.948 209.212C128.278 208.913 128.704 208.742 129.148 208.732L149.028 208.582C149.304 208.581 149.576 208.645 149.824 208.766C150.072 208.887 150.289 209.064 150.458 209.282L156.508 217.152C156.723 217.429 157.015 217.638 157.348 217.752L161.448 219.141L169.129 221.749L169.438 221.731L171.208 222.455L173.288 223.161L173.838 223.351C174.118 223.448 174.368 223.613 174.568 223.829L175.038 224.021C177.424 225.075 179.38 226.908 180.586 229.22C181.793 231.532 182.178 234.185 181.678 236.744L176.718 262.141L187.958 284.482L187.348 285.621L180.918 297.641L180.018 299.321L173.738 290.671L173.693 290.609C173.797 290.913 173.818 291.239 173.753 291.555C173.68 291.912 173.5 292.238 173.238 292.491C172.818 292.891 172.338 293.351 172.038 293.691C171.428 294.361 172.728 299.671 172.928 300.441C172.946 300.507 172.96 300.574 172.968 300.641L173.698 306.131C173.741 306.454 173.694 306.782 173.564 307.08C173.433 307.377 173.224 307.634 172.958 307.821C172.756 307.966 172.586 308.15 172.459 308.364C172.332 308.577 172.251 308.815 172.221 309.061C172.191 309.307 172.213 309.557 172.285 309.795C172.356 310.033 172.477 310.253 172.638 310.441L174.238 312.331C174.456 312.599 174.598 312.92 174.648 313.261L175.028 316.141C175.068 316.426 175.038 316.717 174.941 316.988C174.844 317.258 174.683 317.502 174.472 317.697C174.261 317.893 174.006 318.034 173.728 318.11C173.451 318.185 173.159 318.193 172.878 318.132C162.928 315.982 121.868 321.141 108.268 335.002C108.011 335.267 107.678 335.446 107.315 335.515C106.952 335.584 106.577 335.54 106.24 335.388C105.903 335.236 105.622 334.984 105.433 334.666C105.245 334.348 105.16 333.98 105.188 333.612C105.428 330.632 109.758 317.152 109.758 317.152L111.078 308.752C111.108 308.556 111.108 308.357 111.078 308.162L109.868 301.212C109.803 300.848 109.628 300.513 109.368 300.252L108.958 299.842C108.622 299.504 108.433 299.048 108.433 298.572C108.433 298.095 108.622 297.639 108.958 297.302L110.548 295.722C110.741 295.524 110.887 295.286 110.975 295.025C111.063 294.763 111.092 294.485 111.058 294.212L108.948 278.612C108.943 278.597 108.941 278.579 108.938 278.562C108.936 278.544 108.933 278.527 108.928 278.512L104.331 254.234Z" fill="url(#paint0_linear_512_210)"/>
<path d="M288.635 284.344L287.262 297.074L288.07 313.768L251.094 309.375L247.619 284.344L252.046 284.387L288.635 284.344Z" fill="#FFB6B6"/>
<path d="M203.705 170.761C203.288 171.649 203.072 172.617 203.07 173.598C203.068 174.578 203.281 175.547 203.695 176.437C204.108 177.326 204.711 178.113 205.462 178.744C206.213 179.375 207.093 179.834 208.04 180.088L236.646 234.064L248.193 225.152L216.443 174.897C216.764 173.278 216.48 171.597 215.645 170.173C214.81 168.749 213.481 167.681 211.911 167.172C210.341 166.662 208.638 166.746 207.125 167.407C205.613 168.069 204.396 169.262 203.705 170.761V170.761Z" fill="#FFB6B6"/>
<path d="M307.814 515.476H299.73L295.882 484.294H307.814V515.476Z" fill="#FFB6B6"/>
<path d="M312.081 529.483H306.283L305.248 524.009L302.598 529.483H287.222C286.485 529.483 285.767 529.247 285.173 528.81C284.58 528.373 284.141 527.758 283.922 527.055C283.702 526.351 283.714 525.596 283.954 524.899C284.194 524.202 284.651 523.6 285.258 523.182L297.537 514.701V509.168L310.452 509.939L312.081 529.483Z" fill="#2F2E41"/>
<path d="M262.404 515.476H254.32L250.472 484.294H262.404V515.476Z" fill="#FFB6B6"/>
<path d="M266.671 529.483H260.873L259.838 524.009L257.188 529.483H241.812C241.075 529.483 240.357 529.247 239.763 528.81C239.169 528.373 238.731 527.758 238.512 527.055C238.292 526.351 238.304 525.596 238.544 524.899C238.784 524.202 239.241 523.6 239.848 523.182L252.127 514.701V509.168L265.042 509.939L266.671 529.483Z" fill="#2F2E41"/>
<path d="M311.301 488.586H311.214L309.659 437.886C310.665 435.945 311.176 433.785 311.145 431.6C311.115 429.414 310.545 427.269 309.485 425.357L309.262 424.954L309.839 422.279C310.581 418.842 310.241 415.26 308.866 412.023L307.415 364.729C312.597 331.147 287.902 309.246 287.902 309.246H250.909L248.265 318.329L245.438 320.731L246.508 324.366L243.438 328.731L242.967 336.533C237.717 387.685 238.669 437.532 247.001 485.825L246.774 485.939C246.343 486.18 246.021 486.577 245.875 487.048C245.729 487.519 245.771 488.028 245.99 488.47C246.375 489.585 247.35 490.261 248.168 489.978L267.705 489.299C268.135 489.059 268.457 488.662 268.603 488.191C268.749 487.719 268.708 487.21 268.488 486.768C268.103 485.653 267.128 484.978 266.31 485.26L264.982 485.932L267.815 437.008L267.501 428.072L268.148 417.934L271.143 372.333L282.478 428.409L294.056 489.15C293.737 489.439 293.513 489.819 293.413 490.238C293.314 490.657 293.344 491.096 293.5 491.498C293.655 491.9 293.929 492.245 294.285 492.488C294.64 492.731 295.062 492.86 295.492 492.859H311.301C311.868 492.859 312.411 492.634 312.812 492.233C313.213 491.832 313.438 491.289 313.438 490.722C313.438 490.156 313.213 489.612 312.812 489.212C312.411 488.811 311.868 488.586 311.301 488.586V488.586Z" fill="#181818"/>
<path d="M351.815 330.107C352.206 329.208 352.394 328.234 352.367 327.253C352.34 326.273 352.098 325.311 351.659 324.434C351.22 323.557 350.594 322.788 349.826 322.179C349.057 321.57 348.164 321.138 347.21 320.911L317.04 267.793L305.758 277.038L338.962 326.345C338.688 327.973 339.021 329.644 339.897 331.043C340.774 332.442 342.133 333.471 343.717 333.935C345.302 334.399 347.001 334.265 348.494 333.56C349.986 332.854 351.168 331.626 351.815 330.107V330.107Z" fill="#FFB6B6"/>
<path fill-rule="evenodd" clip-rule="evenodd" d="M244.21 248.162C245.681 250.695 246.981 251.882 248.02 252.387L246.335 254.366C234.034 263.152 245.456 278.494 245.456 278.494L247.025 287.333L288.321 292.604L296.739 271.195L309.019 285.372L315.302 294.225C314.448 295.51 316.108 298.604 319.672 300.258L335.65 293.514C335.295 292.399 334.579 291.435 333.615 290.772C332.652 290.109 331.495 289.786 330.327 289.853C328.618 284.071 316.428 267.094 308.601 256.192C305.595 252.006 303.233 248.715 302.354 247.298C300.416 244.175 298.808 243.163 297.672 242.943L282.438 232.732L269.438 230.732L265.225 237.233L262.207 239.044L262.661 238.497L242.632 216.021L236.611 206.989C237.502 205.729 238.478 203.293 234.963 201.536L218.796 207.811C219.118 208.935 219.805 209.92 220.749 210.611C221.693 211.302 222.84 211.658 224.009 211.625C225.709 218.06 235.629 234.169 241.106 243.063C242.495 245.319 243.599 247.11 244.21 248.162Z" fill="url(#paint1_linear_512_210)"/>
<path d="M263.12 195.668C257.741 206.27 261.255 218.551 271.236 225.009C282.03 231.992 296.045 230.463 300.577 216.892C305.625 201.78 301.478 195.296 292.461 187.551C281.893 178.474 268.932 184.212 263.12 195.668Z" fill="#2F2E41"/>
<path d="M289.599 219.286C286.86 222.874 282.809 225.227 278.337 225.83C273.864 226.433 269.335 225.236 265.744 222.502C262.153 219.768 259.794 215.72 259.186 211.248C258.577 206.776 259.769 202.245 262.499 198.651L262.647 198.457C265.436 194.965 269.487 192.71 273.924 192.177C278.362 191.645 282.831 192.878 286.367 195.611C289.903 198.344 292.224 202.358 292.827 206.786C293.431 211.215 292.27 215.703 289.594 219.283L289.599 219.286Z" fill="#FFB6B6"/>
<path d="M257.907 193.951C260.675 196.585 264.048 198.496 267.73 199.517C268.468 198.663 269.343 197.938 270.319 197.372C269.852 198.344 269.531 199.38 269.369 200.446C271.011 203.853 277.717 206.303 284.127 208.808L292.617 193.825L281.38 187.458C272.35 181.215 261.72 183.879 257.907 193.951Z" fill="#2F2E41"/>
<path d="M299.021 187.57C299.841 187.268 300.723 187.176 301.587 187.302C302.451 187.428 303.27 187.769 303.969 188.292C305.337 189.332 306.444 190.678 307.199 192.221C308.574 194.718 309.561 197.41 310.128 200.203C310.613 202.62 310.531 205.542 308.362 206.803C306.553 207.855 303.966 207.192 302.303 205.788C300.762 204.315 299.593 202.496 298.892 200.482C298.204 198.483 297.183 196.615 295.872 194.956L297.37 195.655C296.896 194.218 296.675 192.709 296.718 191.196C296.752 190.443 296.982 189.712 297.387 189.076C297.791 188.44 298.354 187.921 299.021 187.57V187.57Z" fill="#2F2E41"/>
<path d="M279.585 189.534L291.641 196.365C293.255 197.279 294.673 198.503 295.815 199.966C296.956 201.428 297.798 203.102 298.293 204.89C298.787 206.678 298.925 208.546 298.698 210.387C298.47 212.228 297.882 214.007 296.968 215.621C294.277 220.369 289.913 223.943 284.728 225.644C279.542 227.346 273.909 227.053 268.928 224.823L279.945 215.098L265 222.712L261.81 220.904C277.837 217.99 280.929 205.418 279.585 189.534Z" fill="#2F2E41"/>
<path d="M163.162 0L123.5 66.033L163.297 89.529L163.162 0Z" fill="#8C8C8C"/>
<path d="M202.998 66.033L163.162 0L163.297 89.529L202.998 66.033Z" fill="#333333"/>
<path d="M123.5 66.033L163.249 47.916L163.297 89.529L123.5 66.033Z" fill="#383838"/>
<path d="M202.998 66.033L163.249 47.916L163.335 88.008L202.998 66.033Z" fill="#141414"/>
<path d="M202.901 73.595L163.2 97.091V129.5L202.901 73.595Z" fill="#333333"/>
<path d="M123.498 73.595L163.2 97.091V129.5L123.498 73.595Z" fill="#8C8C8C"/>
<defs>
<linearGradient id="paint0_linear_512_210" x1="89.5" y1="214.5" x2="173" y2="312.5" gradientUnits="userSpaceOnUse">
<stop stop-color="#22C1C3"/>
<stop offset="1" stop-color="#FDBB2D"/>
</linearGradient>
<linearGradient id="paint1_linear_512_210" x1="277.223" y1="201.536" x2="277.223" y2="300.258" gradientUnits="userSpaceOnUse">
<stop stop-color="#22C1C3"/>
<stop offset="1" stop-color="#FDBB2D"/>
</linearGradient>
</defs>
</svg>
