<svg width="285" height="265" viewBox="0 0 285 265" fill="none" xmlns="http://www.w3.org/2000/svg">
<path fill-rule="evenodd" clip-rule="evenodd" d="M255 165L255 235L183 235L183 265L255 265L285 265L285 235L285 165L255 165Z" fill="url(#paint0_linear_507_180)"/>
<path fill-rule="evenodd" clip-rule="evenodd" d="M255 100L255 30L183 30L183 -3.17083e-06L255 1.31134e-06L285 0L285 100L255 100Z" fill="black"/>
<path fill-rule="evenodd" clip-rule="evenodd" d="M30 265L102 265L102 235L30 235L30 165L4.37114e-06 165L4.37114e-06 235L4.37114e-06 265L30 265Z" fill="black"/>
<path fill-rule="evenodd" clip-rule="evenodd" d="M4.37115e-06 0L102 -3.17083e-06L102 30L30 30L30 100L4.37115e-06 100L4.37115e-06 30L4.37115e-06 0Z" fill="black"/>
<defs>
<linearGradient id="paint0_linear_507_180" x1="285" y1="169.5" x2="191.5" y2="268.5" gradientUnits="userSpaceOnUse">
<stop stop-color="#22C1C3"/>
<stop offset="1" stop-color="#FDBB2D" stop-opacity="0.71"/>
</linearGradient>
</defs>
</svg>
